<svg xmlns="http://www.w3.org/2000/svg" viewBox="0 0 498.5 406.6" style="enable-background:new 0 0 498.5 406.6" xml:space="preserve"><path d="M498.5 178.9c-.7-3.3-2.9-5.3-6.2-5.7-2.5-.3-2.9-1.5-2.9-3.7.1-12.2.3-24.3-.1-36.5-.1-5 .7-8.9 5.2-11.6 1.8-1.1 2.8-3 3-5.2.3-4.2-2.3-7.3-6.9-8.1-8.9-1.6-17.8-3.2-26.7-4.9-3.2-.6-3.2-.6-3.2-4 0-10.1.3-20.2-.1-30.3-.2-4.7.9-8.2 5-10.7.8-.5 1.4-1.2 2-2 2.8-3.9 1.2-9.4-3.3-11.1-1-.4-2-.5-3-.7-34.5-6.2-69.1-12.5-103.7-18.7-47.1-8.5-94.3-17-141.4-25.5-3.2-.6-5.8 0-8.5 1.9C171.4 27.5 135 52.9 98.5 78.3 71.6 97 44.8 116 17.6 134.5c-8.9 6.1-14.3 14-16.3 24.4-2.2 10.8-1.6 21.5 1.9 32 2.5 7.4 6.3 14 11.9 19.5 2 2 4.2 3.3 7 3.7 3.1.5 6.1 1.3 9.3 2-.7 2.8-1.4 5.2-1.8 7.7-2.3 14-.7 27.4 6.3 39.8.9 1.6.6 2.4-.8 3.2-2.3 1.5-4.4 3.2-6.7 4.6-7.4 4.5-11.9 11.1-14.5 19.2-2.7 8.6-3.1 17.4-1.8 26.2 1.6 11.2 5.9 21.1 13.8 29.4 2.2 2.3 4.6 3.8 7.7 4.3 3.3.6 6.5 1.3 9.8 2 39 8.2 78.1 16.3 117.1 24.5 46.4 9.7 92.7 19.4 139.1 29.2 3.8.8 6.8.1 9.7-2.5 39.2-33.5 78.4-67 117.6-100.4 17.1-14.6 34.1-29.2 51.2-43.7 2.5-2.1 3.9-4.6 3.2-7.9-.7-3.3-3-5.3-6.2-5.7-2.3-.3-2.5-1.5-2.5-3.4 0-11.3.1-22.7 0-34 0-2 .7-3.2 2.2-4.5 6.9-5.8 13.8-11.7 20.7-17.6 2.4-1.9 3.8-4.4 3-7.6zm-206.7 26.3c1.7-.2 3.4-1.5 4.8-2.7 29.8-25.4 59.6-50.8 89.4-76.3 18.8-16.1 37.6-32.1 56.4-48.2 1-.9 2-1.7 3.4-2.8.1 1.3.3 2 .3 2.8 0 13.6 0 27.2.1 40.9 0 2-.7 3.2-2.2 4.5-49.8 42.3-99.7 84.7-149.5 127-1.6 1.4-3.3 2.7-5.3 4.4-.1-1.3-.1-2.1-.1-2.9 0-14.5 0-28.9-.1-43.4 0-2.1.4-3 2.8-3.3zm-261.1-4.3c-1.6-.3-2.6-.7-2.6-2.7.1-15.3 0-30.6.1-45.9 0-.4.1-.8.3-1.6 7.1 1.5 13.9 2.9 20.7 4.3 34.2 7.2 68.3 14.3 102.5 21.5 40 8.4 79.9 16.7 119.9 25.1 1.6.3 2.9.6 2.9 2.8-.1 15.2-.1 30.4-.1 45.5 0 .4-.1.8-.2 1.6-2-.3-3.9-.6-5.7-1-44.5-9.3-89.1-18.6-133.6-28-34.8-7-69.5-14.3-104.2-21.6zM285.9 385c0 3.2 0 3.3-3.3 2.6-49.3-10.3-98.6-20.7-147.9-31-30.4-6.4-60.8-12.7-91.2-19.1-4.5-1-3.9-.3-3.9-4.7V287c5.8 1.2 11.2 2.3 16.6 3.4l114.3 24c37.5 7.9 75 15.8 112.5 23.6 2.4.5 2.9 1.4 2.9 3.7-.1 14.4 0 28.9 0 43.3zm-.6-73.3c-48.4-10.1-96.8-20.3-145.2-30.4-26.7-5.6-53.5-11.2-80.2-16.8-2.1-.4-3.1-1.1-3.1-3.6.1-12.2.1-24.3.1-36.5 0-.9.1-1.8.2-3 6.6 1.4 13 2.7 19.4 4 51.3 10.8 102.7 21.5 154 32.3 19 4 38 7.9 57 12 4.2.9 7.8.6 10.8-2.7.5-.5 1.1-1 1.7-1.4 1.4-.8 2.6-.1 2.8 1.5v46.1c0 .5-.1 1-.2 2-6-1.1-11.7-2.3-17.3-3.5zm170.8-52.5c-50.9 43.3-101.8 86.6-152.8 129.9-.7.6-1.4 1.1-2.5 1.9-.1-1.5-.2-2.5-.2-3.5 0-14.1 0-28.3-.1-42.4 0-2 .1-3.2 2.7-3.4 1.4-.1 2.8-1.2 4.1-2.1 1.3-.9 2.5-1.9 3.6-3 2.4-2.4 4.8-4 8.5-2.8 2.5.8 4.8-.8 6.7-2.5 10.7-9.2 21.5-18.4 32.2-27.6 32.2-27.5 64.5-55.1 96.7-82.6.8-.7 1.6-1.3 2.9-2.3.1 1.3.1 2 .1 2.8V255c.1 1.8-.5 3-1.9 4.2zm16.5-72.4c-25.7 21.8-51.3 43.6-76.9 65.4-24.8 21.1-49.6 42.1-74.3 63.2-.9.8-1.9 1.6-3.4 2.8-.1-1.4-.1-2.2-.1-3 0-14.4 0-28.9-.1-43.3 0-2.2.4-3 2.8-3.3 1.7-.2 3.4-1.6 4.7-2.7 29-24.7 58-49.5 87-74.2 20.1-17.1 40.1-34.3 60.2-51.4.6-.5 1.3-1 2.3-1.8.1 1 .3 1.8.3 2.5 0 13.7-.1 27.4.1 41.2-.1 2.3-1.2 3.4-2.6 4.6z" style="fill:#000"/></svg>